<svg version="1.1" xmlns="http://www.w3.org/2000/svg" viewBox="-2902.2232533312854 -5982.73302610628 11660.24927316345 8807.83704692421"><desc>Created with Snap</desc><defs></defs><g><g transform="matrix(28.1234,0,0,28.1234,-2790.5537,-7747.8931)">
<g id="gSl374p0fh2s4">
	<path d="M61.01423,300.22949c59.23515,70.46036,160.56436,82.36752,241.84523,41.02591
		c81.90601-41.65958,158.72986-208.10381,21.72983-214.46304c-52.95584-2.45808-89.79474,40.29303-135.24965,3.27516
		c-37.44801-30.49716-64.47668-74.02538-132.06207-48.85297C-21.33626,110.49453,1.72878,229.7093,61.01423,300.22949z" fill="#e94b3c" style=""></path>
</g>


<desc>Created with Snap</desc><defs></defs></g><g><g transform="matrix(0.5,0,0,-0.5,0,0)"><path d="M530 1921L526 1907Q473 1559 411 1281Q350 1003 303 776Q366 889 409 936Q495 1030 576 1030Q657 1030 700 968Q743 906 743 838Q743 690 696 486Q650 283 569 149Q468 -20 338 -20Q244 -20 198 64Q152 148 152 258Q152 368 167 470Q183 572 201 686Q219 800 235 894Q252 989 267 1069Q282 1149 297 1224Q313 1300 353 1493Q393 1687 436 1933Q453 1966 477 1966Q530 1966 530 1921ZM256 258Q256 84 338 84Q413 84 486 206Q585 371 624 615Q635 684 635 761Q635 839 621 884Q607 930 563 930Q498 930 392 777Q286 624 271 475Q256 327 256 258ZM955 0Q838 0 838 147Q838 294 947 507Q1057 721 1205 876Q1353 1032 1446 1032Q1540 1032 1553 950Q1557 925 1559 897Q1568 903 1581 903Q1628 903 1628 858L1628 850Q1628 847 1603 760Q1578 673 1546 470Q1514 267 1514 123Q1523 117 1535 109Q1547 102 1565 86Q1583 71 1583 50Q1583 29 1570 12Q1557 -4 1533 -4Q1484 -4 1444 46Q1405 96 1405 154Q1405 279 1473 584Q1388 406 1253 241Q1118 76 1066 38Q1015 0 955 0ZM940 143Q940 106 971 106Q993 106 1008 121Q1215 299 1379 614Q1472 794 1477 821Q1483 848 1483 867Q1483 886 1473 903Q1463 920 1445 920Q1427 920 1392 901Q1315 859 1202 722Q1090 585 1015 424Q940 263 940 143ZM1887 258Q1887 76 2020 76Q2086 76 2144 140Q2166 165 2185 185Q2204 205 2224 205Q2264 205 2264 170Q2264 106 2182 40Q2100 -25 1996 -25Q1893 -25 1839 51Q1786 128 1786 224Q1786 403 1852 595Q1919 787 2027 917Q2136 1047 2257 1047Q2345 1047 2373 984Q2380 967 2389 940Q2399 914 2411 907Q2419 894 2419 875Q2419 857 2402 841Q2385 825 2364 825Q2321 825 2309 888Q2297 952 2242 952Q2165 952 2082 835Q2000 718 1943 551Q1887 384 1887 258ZM3226 201Q3279 201 3279 134Q3279 94 3245 55Q3178 -20 3108 -20Q2990 -20 2899 55Q2809 130 2752 235Q2695 340 2682 413L2677 410Q2670 358 2633 207Q2596 57 2590 27Q2580 -25 2542 -25Q2511 -25 2498 -14Q2485 -3 2485 4L2485 12Q2485 70 2577 459Q2670 848 2693 950Q2808 1443 2849 1686Q2890 1930 2900 1952Q2911 1974 2925 1974Q2991 1974 2991 1906Q2991 1882 2967 1769Q2944 1656 2923 1556Q2903 1457 2856 1241Q2809 1026 2794 956Q2878 1044 2960 1044Q3042 1044 3072 987Q3103 931 3103 867Q3103 746 3018 655Q2933 564 2761 460Q2789 306 2890 191Q2991 76 3099 76Q3149 76 3173 123Q3184 143 3194 172Q3204 201 3226 201ZM2937 950Q2859 950 2802 880Q2746 811 2720 669Q2715 640 2701 576L2687 504Q2697 512 2724 528Q2751 545 2814 588Q2877 631 2938 701Q2999 771 2999 860Q2999 950 2937 950ZM3719 1964Q3728 1985 3751 1985Q3774 1985 3786 1971Q3799 1957 3806 1920Q3840 1753 4012 1094Q4185 435 4264 158Q4311 424 4424 1011Q4537 1599 4598 1939Q4605 1961 4627 1975Q4650 1989 4669 1989Q4688 1989 4689 1976Q4690 1964 4690 1939Q4563 1326 4464 768Q4365 210 4348 118Q4332 27 4327 16Q4322 6 4307 -9Q4293 -23 4268 -23Q4244 -23 4216 24Q4189 73 4152 222Q4115 371 3978 886Q3842 1402 3763 1731Q3716 1516 3597 943Q3479 370 3394 20Q3385 -20 3341 -20Q3298 -20 3298 17Q3298 29 3367 315Q3437 602 3574 1273Q3711 1944 3719 1964ZM5024 1376Q5083 1376 5083 1317Q5083 1231 5023 1220Q5006 1217 4986 1217Q4966 1217 4946 1237Q4926 1257 4926 1288Q4926 1320 4957 1348Q4988 1376 5024 1376ZM4883 909L4883 929Q4883 943 4868 997Q4868 1022 4885 1042Q4902 1063 4926 1063Q4951 1063 4967 1032Q4983 1001 4983 964Q4983 927 4889 522Q4795 117 4795 95Q4795 74 4815 74Q4828 74 4852 99Q4876 125 4893 125Q4926 125 4926 83Q4926 42 4864 11Q4802 -20 4774 -20Q4704 -20 4704 92Q4704 115 4713 143Q4723 172 4733 222Q4744 273 4763 360Q4783 447 4803 540Q4824 633 4853 765Q4883 898 4883 909ZM5777 810Q5777 909 5723 909Q5651 909 5448 496Q5356 309 5319 213Q5283 118 5265 79Q5247 40 5229 20Q5212 0 5190 0Q5169 0 5165 10Q5161 21 5161 48Q5161 76 5241 520Q5322 965 5334 988Q5347 1011 5357 1017Q5367 1024 5393 1024Q5419 1024 5433 1004Q5448 984 5448 968Q5448 953 5444 938Q5437 911 5423 871Q5375 734 5331 483L5310 362Q5333 410 5362 477Q5391 545 5448 671Q5505 797 5575 896Q5665 1026 5743 1026Q5880 1026 5880 805Q5880 722 5856 598Q5833 474 5804 327Q5776 180 5773 84L5761 29Q5761 7 5754 -3Q5748 -12 5715 -12Q5683 -12 5668 0Q5654 12 5659 43L5759 641Q5777 752 5777 810ZM6348 1364Q6385 1364 6404 1338Q6424 1312 6424 1279Q6424 1246 6397 1228Q6371 1210 6342 1210Q6313 1210 6292 1237Q6271 1264 6271 1292Q6271 1321 6291 1342Q6311 1364 6348 1364ZM5359 -719Q5425 -745 5534 -745Q5933 -745 6033 -221Q6181 561 6240 993Q6245 1016 6262 1028Q6280 1040 6297 1040Q6332 1040 6332 1004L6288 696Q6177 -98 6078 -402Q5995 -656 5831 -763Q5701 -848 5515 -848Q5404 -848 5331 -808Q5308 -796 5308 -778Q5308 -760 5323 -742Q5339 -724 5359 -719ZM6554 0Q6437 0 6437 147Q6437 294 6546 507Q6656 721 6804 876Q6952 1032 7045 1032Q7139 1032 7152 950Q7156 925 7158 897Q7167 903 7180 903Q7227 903 7227 858L7227 850Q7227 847 7202 760Q7177 673 7145 470Q7113 267 7113 123Q7122 117 7134 109Q7146 102 7164 86Q7182 71 7182 50Q7182 29 7169 12Q7156 -4 7132 -4Q7083 -4 7043 46Q7004 96 7004 154Q7004 279 7072 584Q6987 406 6852 241Q6717 76 6665 38Q6614 0 6554 0ZM6539 143Q6539 106 6570 106Q6592 106 6607 121Q6814 299 6978 614Q7071 794 7076 821Q7082 848 7082 867Q7082 886 7072 903Q7062 920 7044 920Q7026 920 6991 901Q6914 859 6801 722Q6689 585 6614 424Q6539 263 6539 143ZM8891 1862Q8657 1868 8568 1868Q8480 1868 8377 1862Q8334 1866 8334 1896Q8334 1953 8438 1960Q8467 1962 8496 1962L8915 1954Q8944 2040 8993 2040Q9022 2040 9028 2005L9032 1964L9030 1954Q9087 1956 9131 1959Q9176 1962 9214 1964Q9253 1967 9330 1972Q9407 1978 9500 1978L9574 1978Q9587 1978 9601 1980Q9636 1971 9636 1946Q9636 1884 9536 1884Q9406 1884 9258 1874Q9110 1864 8989 1862Q8955 1693 8906 1481Q8858 1270 8762 785Q8666 300 8614 -20Q8609 -45 8591 -62Q8574 -78 8558 -78Q8524 -78 8520 -35Q8581 471 8790 1361Q8820 1491 8836 1551Q8852 1611 8857 1643Q8862 1675 8867 1711Q8873 1748 8878 1786Q8884 1825 8891 1862ZM9878 168Q9913 168 9913 131Q9913 88 9808 34Q9703 -20 9633 -20Q9563 -20 9528 3Q9493 26 9471 67Q9428 147 9428 260Q9428 460 9488 637Q9548 814 9648 930Q9748 1047 9864 1047Q9926 1047 9961 995Q9997 944 9997 874Q9997 743 9928 652Q9860 561 9760 503Q9660 445 9530 393L9526 246Q9526 74 9630 74Q9686 74 9747 106Q9809 139 9836 153Q9863 168 9878 168ZM9903 870Q9903 950 9836 950Q9776 950 9695 842Q9614 734 9561 557Q9548 514 9546 492Q9586 514 9628 534Q9670 554 9710 576Q9802 627 9852 695Q9903 764 9903 870ZM10186 258Q10186 76 10319 76Q10385 76 10443 140Q10465 165 10484 185Q10503 205 10523 205Q10563 205 10563 170Q10563 106 10481 40Q10399 -25 10295 -25Q10192 -25 10138 51Q10085 128 10085 224Q10085 403 10151 595Q10218 787 10326 917Q10435 1047 10556 1047Q10644 1047 10672 984Q10679 967 10688 940Q10698 914 10710 907Q10718 894 10718 875Q10718 857 10701 841Q10684 825 10663 825Q10620 825 10608 888Q10596 952 10541 952Q10464 952 10381 835Q10299 718 10242 551Q10186 384 10186 258ZM10909 66L10911 31Q10911 -16 10835 -16Q10800 -16 10800 18Q10800 52 11000 970Q11149 1673 11189 1919L11197 1946Q11206 1976 11233 1976Q11284 1976 11298 1925Q11290 1887 11276 1819Q11263 1751 11245 1664Q11227 1577 11206 1476Q11185 1375 11163 1271Q11141 1167 11096 953Q11051 739 11019 594Q11228 1024 11414 1024Q11490 1024 11527 964Q11564 905 11564 833Q11564 761 11538 632L11504 460Q11448 177 11448 122L11451 44Q11451 18 11433 2Q11416 -14 11387 -14Q11358 -14 11344 6Q11331 27 11331 46Q11331 65 11334 80L11453 745Q11459 777 11459 819Q11459 922 11402 922Q11294 922 11108 599Q11003 416 10979 345Q10955 275 10932 183Q10909 92 10909 66Z" fill="#2d2926" style=""></path></g></g><g transform="matrix(2,0,0,2,1755,-1450.2)"><g transform="matrix(0.5,0,0,-0.5,0,0)"><path d="M6 -82Q10 -50 20 0Q-9 6 -38 12Q-162 37 -166 78Q-167 83 -167 94Q-167 106 -156 119Q-144 133 -134 133Q-123 133 -112 130Q-98 125 -65 109Q-32 94 41 94L94 317Q125 475 163 634Q202 794 240 958L178 961Q147 961 147 995Q147 1044 258 1044Q303 1235 338 1459Q373 1683 428 1858Q391 1842 360 1815Q342 1778 307 1778Q298 1778 285 1786Q272 1795 272 1819Q272 1866 332 1902Q392 1939 469 1954Q482 1975 500 1975Q519 1975 532 1958Q722 1952 837 1827Q952 1703 952 1495Q952 1325 826 1181Q701 1037 545 1016Q719 1005 850 863Q981 722 981 570Q981 278 757 131Q534 -16 152 -16L109 -14Q102 -43 102 -63Q97 -89 79 -106Q62 -123 46 -123Q11 -123 6 -82ZM127 80Q154 76 207 76Q534 76 710 207Q887 338 887 557Q887 710 747 830Q607 950 436 950Q392 950 328 954Q231 533 206 418Q182 303 175 276Q168 250 160 218L143 150Q134 114 127 80ZM852 1494Q852 1678 757 1772Q663 1866 512 1870Q462 1705 415 1423Q369 1142 348 1047Q559 1061 705 1185Q852 1310 852 1494ZM1770 1862Q1536 1868 1447 1868Q1359 1868 1256 1862Q1213 1866 1213 1896Q1213 1953 1317 1960Q1346 1962 1375 1962L1794 1954Q1823 2040 1872 2040Q1901 2040 1907 2005L1911 1964L1909 1954Q1966 1956 2010 1959Q2055 1962 2093 1964Q2132 1967 2209 1972Q2286 1978 2379 1978L2453 1978Q2466 1978 2480 1980Q2515 1971 2515 1946Q2515 1884 2415 1884Q2285 1884 2137 1874Q1989 1864 1868 1862Q1834 1693 1785 1481Q1737 1270 1641 785Q1545 300 1493 -20Q1488 -45 1470 -62Q1453 -78 1437 -78Q1403 -78 1399 -35Q1460 471 1669 1361Q1699 1491 1715 1551Q1731 1611 1736 1643Q1741 1675 1746 1711Q1752 1748 1757 1786Q1763 1825 1770 1862Z" fill="#2d2926" style=""></path></g></g></g></svg>