<svg version="1.1" xmlns="http://www.w3.org/2000/svg" viewBox="0 0 250 250"><desc>Created with Snap</desc><defs></defs><g transform="matrix(0.0293,0,0,0.0293,46.5001,127.3615)"><g transform="matrix(20.0947,0,0,20.0947,-1335.9755,-4099.6493)">
<g id="gSl3758ml8gj">
	<g>
		<g>
			<path d="M394.35947,201.70563c-1.02484,40.03262-14.36957,79.1557-38.30353,111.29541
				c-22.98865,30.87024-55.09421,54.61053-91.40369,67.40912c-38.09433,13.4277-80.22023,14.55121-119.00087,3.27557
				c-37.12295-10.79367-70.57287-32.86734-95.24805-62.61133C25.38264,290.91394,9.88069,253.392,6.43797,214.34755
				c-3.55445-40.31158,7.97381-81.86205,29.65278-115.82537c20.75089-32.50934,51.17118-58.51607,86.54323-73.89827
				C159.49695,8.59337,201.11905,4.49347,240.4381,12.7976c38.12755,8.05249,73.35225,27.80426,100.24336,55.98933
				c26.89423,28.18832,44.95993,64.29681,51.21994,102.76215c1.63016,10.01682,2.66824,20.29828,2.45099,30.45525
				c-0.02887,1.35051-0.02158,2.70317-0.01062,4.05388c0.00223,0.2735,0.01791,2.12119,0.04053,1.06296
				c0.42706-19.9673-1.16046-39.76802-6.2027-59.1438c-5.04739-19.39552-13.13757-37.97497-23.87042-54.89912
				c-21.23846-33.48996-52.69785-60.1273-89.29248-75.43089C236.89044,1.70323,193.83626-1.60377,153.70093,8.22285
				c-38.68525,9.47159-73.96521,31.07151-100.14757,61.06426C26.99277,99.71315,10.40321,138.17885,6.57031,178.38963
				c-3.79564,39.8199,2.91581,80.28514,21.77678,115.73189c18.54498,34.85291,47.74068,63.68491,82.8444,81.75653
				c36.80142,18.94559,79.42824,25.57199,120.27161,18.93204c39.36627-6.39981,76.25104-25.18701,104.71246-53.1062
				c28.71466-28.16757,48.28406-65.08585,55.27084-104.71338c1.72244-9.76938,2.67499-19.65547,2.9288-29.57066
				C394.42081,205.6396,394.32358,203.10771,394.35947,201.70563z" fill="#a3003f" style=""></path>
		</g>
		<g>
			<path d="M384.16437,200.95979c-0.96948,37.67242-13.51837,74.48354-36.03699,104.73305
				c-21.60678,29.02463-51.78247,51.36957-85.91025,63.42532c-35.70105,12.61154-75.16084,13.75424-111.55208,3.31155
				c-35.07212-10.06412-66.70206-30.8139-90.04433-58.84158c-23.57951-28.31256-38.23566-63.55717-41.5681-100.25949
				c-3.44505-37.94264,7.43247-77.10228,27.82195-109.0798c19.50157-30.58497,48.08769-55.05418,81.33714-69.56021
				c34.64224-15.11367,73.79033-19.02391,110.77145-11.27026c35.87495,7.52172,69.03416,26.02512,94.38576,52.48471
				c25.34052,26.44804,42.41953,60.36095,48.39987,96.51042c1.56839,9.48041,2.5929,19.22691,2.38849,28.84497
				c-0.02872,1.35051-0.02161,2.70317-0.01062,4.05388c0.0022,0.2735,0.01804,2.1212,0.04053,1.06296
				c0.3988-18.7643-1.03699-37.36839-5.73373-55.58963c-4.71414-18.28885-12.30157-35.81488-22.38492-51.78335
				C336.125,67.41871,306.52921,42.26576,272.0787,27.80338c-35.89688-15.06956-76.44377-18.24041-114.26489-9.02209
				c-36.45747,8.88595-69.70293,29.21078-94.38911,57.45163C38.38953,104.87299,22.7417,141.1198,19.13585,178.99318
				c-3.56545,37.44904,2.62349,75.50336,20.28055,108.89131c17.38305,32.86981,44.8184,60.08994,77.84254,77.18311
				c34.63775,17.92841,74.77824,24.23904,113.27341,18.05304c37.21521-5.98032,72.10785-23.73868,98.97885-50.15134
				c26.93942-26.47995,45.29636-61.12494,51.8902-98.33336c1.6369-9.23688,2.53745-18.58603,2.77872-27.96193
				C384.22592,204.89378,384.1283,202.36186,384.16437,200.95979z" fill="#a3003f" style=""></path>
		</g>
		<g>
			<path d="M378.12955,191.33397c-0.90213,34.82123-12.46313,68.84239-33.23041,96.83885
				c-20.05997,27.04294-48.12695,47.84525-79.88693,59.05234c-32.96756,11.63321-69.41772,12.71161-103.03377,3.12222
				c-32.53439-9.28085-61.88795-28.46027-83.57378-54.41476c-21.90107-26.21207-35.53071-58.8539-38.68074-92.87173
				c-3.24719-35.06709,6.89833-71.32854,25.72519-100.88348c18.06519-28.35925,44.55944-51.06163,75.37902-64.51524
				c32.12216-14.02223,68.38997-17.64727,102.68657-10.47926c33.12975,6.92413,63.7787,23.98623,87.24452,48.35861
				c23.54791,24.45763,39.4556,55.85356,45.08145,89.34676c1.47507,8.78174,2.46973,17.83081,2.28183,26.74438
				c-0.02847,1.35052-0.02161,2.70316-0.01065,4.05388c0.00223,0.27348,0.01825,2.1212,0.04056,1.06296
				c0.36649-17.38512-0.90256-34.61259-5.20755-51.50851c-4.30206-16.88425-11.25226-33.07607-20.49515-47.84441
				c-18.41162-29.41833-45.83148-52.87283-77.80072-66.39907c-33.30731-14.09239-70.98164-17.10499-106.12466-8.58576
				c-33.88019,8.2131-64.7917,27.08252-87.71803,53.32784c-23.16263,26.51585-37.65555,60.05003-41.01781,95.10304
				c-3.32995,34.71625,2.26603,70.01709,18.54348,101.02734c16.05161,30.57996,41.47656,55.92804,72.12071,71.86111
				c32.03235,16.65488,69.18037,22.58563,104.82953,16.94745c34.60011-5.47226,67.04689-21.9054,92.05138-46.42136
				c25.05826-24.56866,42.12735-56.76178,48.24323-91.32921c1.5127-8.54979,2.34369-17.20183,2.56851-25.87978
				C378.19144,195.26797,378.09323,192.73601,378.12955,191.33397z" fill="#a3003f" style=""></path>
		</g>
	</g>
</g>


<desc>Created with Snap</desc><defs></defs></g><g><g transform="matrix(1,0,0,-1,0,0)"><path d="M41 26L46 730Q57 767 132 767Q201 767 259 748Q317 730 356 686Q396 643 396 582Q396 534 372 489Q349 444 315 431Q379 422 418 354Q457 286 457 193Q457 130 407 83Q357 37 290 16Q224 -4 156 -4Q73 -4 41 26ZM123 376Q123 307 121 99Q151 65 198 65Q260 65 318 116Q376 168 376 227Q376 300 327 341Q278 382 201 382Q150 382 123 376ZM121 450L183 451Q247 451 281 488Q316 526 316 578Q316 631 281 669Q246 708 184 708Q156 708 118 696Q120 635 120 545Q121 455 121 450ZM538 48L560 686L606 676L628 29Q619 -2 593 -2Q575 -2 558 12Q542 27 538 48ZM746 432L726 483Q752 509 792 524Q832 540 871 540Q1040 540 1040 248Q1040 208 1035 130Q1031 52 1031 13Q1023 -18 1000 -18Q982 -18 967 0Q952 18 952 40Q952 47 953 50Q891 -10 821 -10Q768 -10 728 28Q689 67 689 122Q689 215 761 290Q834 365 926 365Q930 365 934 364Q938 364 943 363Q949 362 952 362Q944 479 859 479Q809 479 746 432ZM955 119Q957 189 957 225Q957 255 955 309L947 309Q876 308 817 256Q759 204 759 130Q759 98 778 79Q798 60 826 60Q870 60 955 119ZM1458 496L1453 453Q1411 459 1381 459Q1312 459 1267 417Q1222 376 1205 319Q1189 263 1189 194Q1189 162 1193 137Q1197 112 1207 88Q1218 64 1240 50Q1263 37 1296 37Q1340 37 1408 54Q1429 62 1441 62Q1465 62 1470 6Q1382 -22 1307 -22Q1198 -22 1159 31Q1121 85 1121 205Q1121 275 1130 327Q1140 380 1164 425Q1188 471 1233 495Q1279 519 1345 519Q1419 519 1458 496ZM1886 0L1794 2Q1757 39 1692 121Q1628 204 1611 223L1611 17Q1602 -13 1576 -13Q1558 -13 1541 1Q1525 16 1521 37Q1524 140 1524 379Q1524 618 1528 722L1589 709Q1590 669 1592 545Q1595 421 1597 360L1840 538L1857 493Q1762 424 1634 298Q1661 269 1753 156Q1846 44 1886 0ZM1926 28L1939 720L1993 720L2320 99L2320 178Q2320 480 2331 721L2388 710Q2399 493 2406 -5Q2385 -14 2362 -14Q2328 -14 2291 6Q2230 100 2139 281Q2049 462 2011 529Q2012 461 2012 281Q2013 101 2016 8Q2007 -23 1981 -23Q1963 -23 1946 -8Q1930 7 1926 28ZM2510 514L2556 504Q2564 422 2570 246Q2576 71 2578 29Q2569 -2 2543 -2Q2525 -2 2508 12Q2492 27 2488 48Q2490 89 2496 261Q2502 434 2510 514ZM2524 693Q2551 693 2569 669Q2587 646 2587 616Q2587 594 2576 580Q2566 567 2548 567Q2520 567 2504 590Q2488 613 2488 644Q2488 666 2497 679Q2507 693 2524 693ZM2737 400L2741 4Q2726 -4 2705 -4Q2689 -4 2669 1Q2672 64 2673 249Q2674 434 2681 523L2726 513L2729 457Q2782 513 2851 513Q2886 513 2907 508Q2928 503 2947 483Q2967 464 2977 432Q2987 400 2995 340Q3003 281 3006 201Q3010 122 3011 1Q3005 -1 2988 -1Q2952 -1 2932 8Q2928 24 2928 61Q2928 80 2929 132Q2931 185 2931 214Q2931 262 2927 298Q2924 334 2914 369Q2905 404 2885 423Q2866 442 2837 442Q2804 442 2785 437Q2767 432 2759 425Q2752 418 2737 400ZM2969 -187L2969 -151Q3005 -143 3031 -121Q3057 -98 3070 -72Q3084 -45 3091 -4Q3099 37 3100 67Q3102 98 3102 143Q3102 184 3101 288Q3100 393 3099 479Q3103 523 3132 523Q3147 523 3160 508Q3174 493 3175 470Q3175 443 3175 385Q3176 328 3176 297Q3176 294 3176 275Q3177 256 3177 240Q3177 100 3167 12Q3157 -76 3134 -121Q3112 -165 3084 -180Q3056 -195 3012 -195Q2993 -195 2969 -187ZM3112 695Q3139 695 3157 671Q3176 648 3176 618Q3176 596 3165 582Q3155 569 3137 569Q3109 569 3093 592Q3077 615 3077 646Q3077 668 3086 681Q3095 695 3112 695ZM3294 432L3274 483Q3300 509 3340 524Q3380 540 3419 540Q3588 540 3588 248Q3588 208 3583 130Q3579 52 3579 13Q3571 -18 3548 -18Q3530 -18 3515 0Q3500 18 3500 40Q3500 47 3501 50Q3439 -10 3369 -10Q3316 -10 3276 28Q3237 67 3237 122Q3237 215 3309 290Q3382 365 3474 365Q3478 365 3482 364Q3486 364 3491 363Q3497 362 3500 362Q3492 479 3407 479Q3357 479 3294 432ZM3503 119Q3505 189 3505 225Q3505 255 3503 309L3495 309Q3424 308 3365 256Q3307 204 3307 130Q3307 98 3326 79Q3346 60 3374 60Q3418 60 3503 119ZM3924 671L3914 716L4296 738Q4321 737 4338 720Q4355 703 4355 683Q4355 670 4345 660Q4335 650 4315 648L4147 657Q4172 304 4184 15Q4175 -15 4150 -15Q4132 -15 4115 -1Q4098 14 4094 35Q4096 89 4096 199Q4096 240 4095 322Q4095 404 4095 445Q4095 564 4099 660Q3986 668 3924 671ZM4799 97L4809 53Q4765 37 4678 17Q4592 -2 4550 -2Q4507 -2 4475 26Q4443 55 4427 99Q4411 144 4403 187Q4396 231 4396 273Q4396 523 4622 523Q4676 523 4717 488Q4758 454 4758 399Q4758 369 4741 346Q4725 323 4701 309Q4678 296 4641 285Q4605 274 4577 269Q4549 264 4510 258Q4471 252 4456 249Q4457 220 4459 198Q4462 176 4469 150Q4477 125 4489 108Q4502 92 4524 81Q4546 70 4576 70Q4612 70 4664 76Q4716 83 4756 90Q4797 97 4799 97ZM4460 311Q4596 350 4683 393Q4676 426 4664 441Q4652 456 4628 456Q4567 456 4517 414Q4468 372 4460 311ZM5186 496L5181 453Q5139 459 5109 459Q5040 459 4995 417Q4950 376 4933 319Q4917 263 4917 194Q4917 162 4921 137Q4925 112 4935 88Q4946 64 4968 50Q4991 37 5024 37Q5068 37 5136 54Q5157 62 5169 62Q5193 62 5198 6Q5110 -22 5035 -22Q4926 -22 4887 31Q4849 85 4849 205Q4849 275 4858 327Q4868 380 4892 425Q4916 471 4961 495Q5007 519 5073 519Q5147 519 5186 496ZM5254 720L5306 708Q5309 667 5310 577Q5312 487 5314 453Q5368 510 5444 510Q5512 510 5561 462Q5611 414 5611 334L5611 5Q5598 -1 5578 -1Q5556 -1 5538 3Q5538 11 5538 27Q5539 44 5539 52Q5539 91 5536 186Q5533 282 5533 346Q5518 438 5440 438Q5406 438 5373 419Q5340 401 5325 376Q5328 313 5329 186Q5330 59 5332 3Q5308 -1 5291 -1Q5266 -1 5249 5Q5251 54 5251 160Q5251 207 5250 332Q5249 458 5249 548Q5250 639 5254 720Z" fill="#424077" style=""></path></g></g></g></svg>